<svg width="20" height="18" viewBox="0 0 20 18" fill="none" xmlns="http://www.w3.org/2000/svg">
<path d="M0 2.88C0 2.88 0 0 2.5 0H17.5C17.5 0 20 0 20 2.88V11.52C20 11.52 20 14.4 17.5 14.4H12.5C12.5 15.36 12.6042 16.08 12.8125 16.56H13.75C14.0952 16.56 14.375 16.8824 14.375 17.28C14.375 17.6776 14.0952 18 13.75 18H6.25C5.90482 18 5.625 17.6776 5.625 17.28C5.625 16.8824 5.90482 16.56 6.25 16.56H7.1875C7.39583 16.08 7.5 15.36 7.5 14.4H2.5C2.5 14.4 0 14.4 0 11.52V2.88ZM1.74806 1.64815C1.61617 1.74945 1.51264 1.89481 1.43053 2.08399C1.34598 2.2788 1.29747 2.49104 1.27205 2.66673C1.25984 2.75117 1.25422 2.81838 1.25171 2.85885C1.25067 2.87563 1.25019 2.88726 1.25 2.89299V11.52C1.25 11.988 1.34798 12.2433 1.43069 12.3862C1.51862 12.5382 1.6448 12.6574 1.80902 12.752C1.97812 12.8494 2.16236 12.9053 2.31487 12.9346C2.38817 12.9487 2.44651 12.9551 2.48164 12.958C2.49621 12.9592 2.50631 12.9598 2.51128 12.96H17.5C17.9063 12.96 18.1279 12.8471 18.2519 12.7518C18.3838 12.6506 18.4874 12.5052 18.5695 12.316C18.654 12.1212 18.7025 11.909 18.7279 11.7333C18.7402 11.6488 18.7458 11.5816 18.7483 11.5412C18.7493 11.5244 18.7498 11.5127 18.75 11.507V2.88C18.75 2.41198 18.652 2.1567 18.5693 2.01377C18.4814 1.86183 18.3552 1.74256 18.191 1.64798C18.0219 1.55057 17.8376 1.49469 17.6851 1.46541C17.6118 1.45134 17.5535 1.44486 17.5184 1.44197C17.5038 1.44077 17.4937 1.44022 17.4887 1.44H2.5C2.09373 1.44 1.87213 1.55287 1.74806 1.64815Z" fill="white"/>
</svg>
