<svg width="20" height="18" viewBox="0 0 20 18" fill="none" xmlns="http://www.w3.org/2000/svg">
<path d="M10 9C12.7614 9 15 6.98528 15 4.5C15 2.01472 12.7614 0 10 0C7.23858 0 5 2.01472 5 4.5C5 6.98528 7.23858 9 10 9ZM13.3333 4.5C13.3333 6.15685 11.8409 7.5 10 7.5C8.15905 7.5 6.66667 6.15685 6.66667 4.5C6.66667 2.84315 8.15905 1.5 10 1.5C11.8409 1.5 13.3333 2.84315 13.3333 4.5Z" fill="white"/>
<path d="M20 16.5C20 18 18.3333 18 18.3333 18H1.66667C1.66667 18 0 18 0 16.5C0 15 1.66667 10.5 10 10.5C18.3333 10.5 20 15 20 16.5ZM18.3333 16.4948C18.3309 16.1246 18.077 15.0157 16.9465 13.9982C15.8594 13.0198 13.8152 12 9.99998 12C6.1848 12 4.14059 13.0198 3.05349 13.9982C1.92292 15.0157 1.66904 16.1246 1.66667 16.4948H18.3333Z" fill="white"/>
</svg>
