<svg width="20" height="20" viewBox="0 0 20 20" fill="none" xmlns="http://www.w3.org/2000/svg">
<path d="M10 1.25C11.9724 1.25 13.5714 2.64911 13.5714 4.375V5H6.42857V4.375C6.42857 2.64911 8.02755 1.25 10 1.25ZM15 5V4.375C15 1.95875 12.7614 0 10 0C7.23858 0 5 1.95875 5 4.375V5H0V17.5C0 18.8807 1.27919 20 2.85714 20H17.1429C18.7208 20 20 18.8807 20 17.5V5H15ZM1.42857 6.25H18.5714V17.5C18.5714 18.1904 17.9318 18.75 17.1429 18.75H2.85714C2.06816 18.75 1.42857 18.1904 1.42857 17.5V6.25Z" fill="white"/>
</svg>
