<svg width="220" height="241" viewBox="0 0 220 241" fill="none" xmlns="http://www.w3.org/2000/svg">
<path d="M207.145 0.18396C205.036 0.793442 203.535 2.06953 198.1 7.8786C195.345 10.8307 193.274 12.5259 191.165 13.5353C185.161 16.4303 178.397 15.4399 168.878 10.2784C160.993 6.01208 159.207 5.49783 157.478 7.02153C156.034 8.29762 155.464 10.3736 155.464 14.4114C155.464 18.4111 156.129 22.887 157.497 27.9342C157.858 29.2484 159.15 33.2481 160.347 36.8478C163.539 46.3328 164.432 50.0849 164.432 54.0464C164.432 58.7699 162.703 61.8554 159.055 63.6457C157.193 64.5599 156.319 64.7504 149.327 65.8551C137.451 67.7406 130.763 69.2834 123.296 71.9308C105.987 78.0255 92.5347 88.6723 82.3125 104.404C74.9974 115.642 70.3044 127.393 65.3453 146.877C61.2792 162.838 60.0062 166.742 57.6881 170.133C55.6741 173.104 49.309 179.713 45.2999 182.989C40.8919 186.608 36.1798 189.655 30.7457 192.36C27.3826 194.055 25.4066 194.912 18.2055 197.883C10.6054 201.026 7.71731 202.683 5.01927 205.425C1.58021 208.911 0.0411868 213.196 0.00318616 219.348C-0.0158142 221.957 0.0411868 222.471 0.421193 223.729C2.22622 229.442 7.88832 235.328 15.1464 238.985C17.9205 240.394 19.6305 240.908 21.5495 240.946C23.5826 240.965 24.3806 240.565 24.8936 239.213C25.5776 237.442 25.0266 235.861 21.1695 228.49C18.2815 222.948 17.8825 219.596 19.6875 215.92C20.3335 214.605 20.7895 213.977 22.1956 212.568C25.1406 209.653 28.9027 207.482 35.8378 204.72C50.696 198.816 60.1392 196.664 66.3143 197.731C68.4423 198.111 69.5633 198.454 73.1354 199.845L75.9854 200.968L114.841 201.026C148.415 201.064 153.773 201.026 154.077 200.797C154.419 200.549 154.457 200.321 154.4 198.073C154.286 192.969 153.203 190.664 150.239 189.312C148.225 188.379 143.551 187.731 138.819 187.731C136.292 187.731 135.741 187.579 135.741 186.893C135.741 185.274 140.986 174.97 144.786 169.104C148.168 163.924 152.329 159.276 154.647 158.115C155.749 157.562 155.863 157.543 158.447 157.562C160.328 157.581 161.468 157.677 162.342 157.905C166.921 159.143 169.087 162.419 169.562 168.876C170.037 175.142 170.493 177.027 172.488 181.141C176.953 190.303 186.434 199.921 193.654 202.606C195.041 203.121 195.573 203.216 197.017 203.235C199.012 203.254 199.829 202.911 200.97 201.654C202.3 200.168 203.573 197.064 203.573 195.255C203.573 192.931 202.528 191.312 198.1 186.722C193.787 182.265 191.754 179.599 190.006 176.151C187.878 171.923 186.415 166.285 185.883 160.114C185.598 156.838 185.769 147.277 186.168 143.659C187.555 131.355 190.861 122.651 197.093 114.823C197.91 113.813 199.715 111.756 201.122 110.252C208.456 102.405 209.805 100.69 211.553 97.1669C213.871 92.4625 214.707 87.3391 214.232 80.6349C213.947 76.6542 213.51 74.1782 212.237 69.3595C210.831 64.1028 210.527 61.9697 210.66 58.3128C210.812 53.3989 211.876 50.961 215.638 46.7899C217.709 44.5043 219.02 42.6569 219.571 41.2855C220.179 39.7047 220.141 36.8097 219.457 33.6861C218.07 27.3628 217.044 20.83 216.113 12.5259C215.524 7.0977 215.277 5.68829 214.593 3.87891C214.099 2.56473 212.788 1.06007 211.648 0.507736C210.584 -0.00650024 208.399 -0.158875 207.145 0.18396Z" fill="black"/>
</svg>
