<svg width="16" height="20" viewBox="0 0 16 20" fill="none" xmlns="http://www.w3.org/2000/svg">
<path d="M12.8 1.25C13.6837 1.25 14.4 1.80964 14.4 2.5V17.5C14.4 18.1904 13.6837 18.75 12.8 18.75H3.2C2.31634 18.75 1.6 18.1904 1.6 17.5V2.5C1.6 1.80964 2.31634 1.25 3.2 1.25H12.8ZM3.2 0C1.43269 0 0 1.11929 0 2.5V17.5C0 18.8807 1.43269 20 3.2 20H12.8C14.5673 20 16 18.8807 16 17.5V2.5C16 1.11929 14.5673 0 12.8 0H3.2Z" fill="white"/>
<path d="M8 17.5C8.88366 17.5 9.6 16.9404 9.6 16.25C9.6 15.5596 8.88366 15 8 15C7.11634 15 6.4 15.5596 6.4 16.25C6.4 16.9404 7.11634 17.5 8 17.5Z" fill="white"/>
</svg>
