<svg width="20" height="18" viewBox="0 0 20 18" fill="none" xmlns="http://www.w3.org/2000/svg">
<path d="M3.34736 13.133C3.61035 13.3874 3.74204 13.7416 3.70654 14.0992C3.62699 14.9005 3.44377 15.7345 3.20846 16.5092C4.95208 16.1205 6.01697 15.6697 6.50102 15.4331C6.77578 15.2988 7.09227 15.2671 7.38978 15.344C8.21208 15.5567 9.08845 15.6719 10 15.6719C14.9945 15.6719 18.75 12.2874 18.75 8.43874C18.75 4.59013 14.9945 1.20553 10 1.20553C5.0055 1.20553 1.25 4.59013 1.25 8.43874C1.25 10.2086 2.02163 11.8509 3.34736 13.133ZM2.73112 17.8406C2.7227 17.8422 2.71427 17.8438 2.70583 17.8454C2.59104 17.8673 2.47403 17.8887 2.35477 17.9098C2.1875 17.9393 2.0158 17.9681 1.83965 17.9959C1.59088 18.0352 1.40046 17.7842 1.49872 17.5603C1.56292 17.414 1.62621 17.2607 1.68788 17.1018C1.72705 17.0008 1.76556 16.8976 1.80323 16.7924C1.80486 16.7878 1.80648 16.7833 1.8081 16.7788C2.11778 15.9111 2.36996 14.9138 2.46223 13.9843C0.928827 12.5012 0 10.5615 0 8.43874C0 3.77815 4.47715 0 10 0C15.5228 0 20 3.77815 20 8.43874C20 13.0993 15.5228 16.8775 10 16.8775C8.97906 16.8775 7.99385 16.7484 7.06605 16.5084C6.41671 16.8258 5.01792 17.4035 2.73112 17.8406Z" fill="white"/>
</svg>
