<svg version="1.2" baseProfile="tiny-ps" xmlns="http://www.w3.org/2000/svg" viewBox="0 0 72 72" width="72" height="72">
	<title>error__circle-svg</title>
	<style>
		tspan { white-space:pre }
		.s0 { fill: #538bbd }
	</style>
	<path id="Layer" class="s0" d="m0 36c0-19.88 16.12-36 36-36c19.88 0 36 16.12 36 36c0 19.88-16.12 36-36 36c-19.88 0-36-16.12-36-36z" />
	<path id="Error" fill="#ff0404" aria-label="Error"  d="m8.36 43v-17.5h11.06v1.99h-8.7v5.18h8.33v1.99h-8.33v6.34h8.91v1.99h-11.27zm22.66-13.32l0.01 2.21q-0.36-0.21-0.8-0.3q-0.42-0.11-0.94-0.11q-1.83 0-2.81 1.2q-0.97 1.18-0.97 3.41v6.91h-2.17v-13.13h2.17v2.04q0.68-1.2 1.77-1.77q1.09-0.59 2.65-0.59q0.22 0 0.49 0.04q0.27 0.02 0.6 0.08zm9.45 0l0.01 2.21q-0.36-0.21-0.8-0.3q-0.42-0.11-0.94-0.11q-1.83 0-2.81 1.2q-0.97 1.18-0.97 3.41v6.91h-2.17v-13.13h2.17v2.04q0.68-1.2 1.77-1.77q1.09-0.59 2.65-0.59q0.22 0 0.49 0.04q0.27 0.02 0.6 0.08zm6.83 1.71q-1.73 0-2.74 1.36q-1.01 1.35-1.01 3.7q0 2.36 1 3.71q1.01 1.35 2.75 1.35q1.72 0 2.73-1.36q1.01-1.36 1.01-3.7q0-2.33-1.01-3.69q-1.01-1.37-2.73-1.37zm0-1.83q2.81 0 4.42 1.83q1.61 1.83 1.61 5.06q0 3.22-1.61 5.06q-1.61 1.83-4.42 1.83q-2.82 0-4.43-1.83q-1.59-1.84-1.59-5.06q0-3.23 1.59-5.06q1.61-1.83 4.43-1.83zm17.19 0.12l0.01 2.21q-0.36-0.21-0.8-0.3q-0.42-0.11-0.94-0.11q-1.83 0-2.81 1.2q-0.97 1.18-0.97 3.41v6.91h-2.17v-13.13l2.17 0v2.04q0.68-1.2 1.77-1.77q1.09-0.59 2.65-0.59q0.22 0 0.49 0.04q0.27 0.02 0.6 0.08z" />
</svg>
