<svg width="20" height="20" viewBox="0 0 20 20" fill="none" xmlns="http://www.w3.org/2000/svg">
<path d="M14.8953 0.0100087C14.843 -0.037491 12.9584 0.0287586 11.3184 1.475C9.67837 2.91999 9.93068 4.57749 9.9676 4.61999C10.0045 4.66248 12.3061 4.72873 13.7753 3.04749C15.2445 1.36625 14.9476 0.0587585 14.8953 0.0100087ZM19.9938 14.6762C19.9199 14.5562 16.4168 13.1337 16.743 10.3987C17.0692 7.66247 19.3199 6.91247 19.3553 6.83122C19.3907 6.74997 18.4369 5.84373 17.4261 5.38498C16.684 5.06155 15.8626 4.87624 15.0215 4.84248C14.8553 4.83873 14.2784 4.72373 13.0922 4.98748C12.3107 5.16123 10.5491 5.72373 10.0645 5.74623C9.57837 5.76873 8.13221 5.09373 6.57682 4.91498C5.58144 4.75873 4.52605 5.07873 3.77066 5.32498C3.01682 5.56998 1.58297 6.26748 0.579887 8.12122C-0.423192 9.97371 0.101425 12.9087 0.47681 13.8212C0.852196 14.7324 1.43835 16.2262 2.43528 17.3162C3.32143 18.5462 4.49682 19.3999 4.98759 19.6899C5.47836 19.9799 6.86298 20.1724 7.82298 19.7737C8.59529 19.3887 9.98914 19.1674 10.5399 19.1837C11.0891 19.1999 12.1722 19.3762 13.2815 19.8574C14.1599 20.1037 14.9907 20.0012 15.823 19.7262C16.6553 19.4499 17.8599 18.4024 19.2661 16.2787C19.7999 15.2912 20.043 14.7574 19.9938 14.6762Z" fill="white"/>
<path d="M14.8953 0.0100087C14.843 -0.037491 12.9584 0.0287586 11.3184 1.475C9.67837 2.91999 9.93068 4.57749 9.9676 4.61999C10.0045 4.66248 12.3061 4.72873 13.7753 3.04749C15.2445 1.36625 14.9476 0.0587585 14.8953 0.0100087ZM19.9938 14.6762C19.9199 14.5562 16.4168 13.1337 16.743 10.3987C17.0692 7.66247 19.3199 6.91247 19.3553 6.83122C19.3907 6.74997 18.4369 5.84373 17.4261 5.38498C16.684 5.06155 15.8626 4.87624 15.0215 4.84248C14.8553 4.83873 14.2784 4.72373 13.0922 4.98748C12.3107 5.16123 10.5491 5.72373 10.0645 5.74623C9.57837 5.76873 8.13221 5.09373 6.57682 4.91498C5.58144 4.75873 4.52605 5.07873 3.77066 5.32498C3.01682 5.56998 1.58297 6.26748 0.579887 8.12122C-0.423192 9.97371 0.101425 12.9087 0.47681 13.8212C0.852196 14.7324 1.43835 16.2262 2.43528 17.3162C3.32143 18.5462 4.49682 19.3999 4.98759 19.6899C5.47836 19.9799 6.86298 20.1724 7.82298 19.7737C8.59529 19.3887 9.98914 19.1674 10.5399 19.1837C11.0891 19.1999 12.1722 19.3762 13.2815 19.8574C14.1599 20.1037 14.9907 20.0012 15.823 19.7262C16.6553 19.4499 17.8599 18.4024 19.2661 16.2787C19.7999 15.2912 20.043 14.7574 19.9938 14.6762Z" fill="white"/>
</svg>
